<?xml version="1.0" encoding="utf-8"?>
<!-- Generator: Adobe Illustrator 27.7.0, SVG Export Plug-In . SVG Version: 6.00 Build 0)  -->
<svg version="1.1" id="Layer_1" xmlns="http://www.w3.org/2000/svg" xmlns:xlink="http://www.w3.org/1999/xlink" x="0px" y="0px"
	 viewBox="0 0 2000 220" style="enable-background:new 0 0 2000 220;" xml:space="preserve">
<style type="text/css">
	.st0{fill:none;stroke:#000000;stroke-width:1.8808;stroke-miterlimit:10;}
	.st1{fill:none;stroke:#000000;stroke-width:2.3439;stroke-miterlimit:10;}
	.st2{fill:none;stroke:#000000;stroke-width:2.6256;stroke-miterlimit:10;}
	.st3{fill:none;stroke:#000000;stroke-width:1.9696;stroke-miterlimit:10;}
	.st4{fill:none;stroke:#000000;stroke-width:2.6773;stroke-miterlimit:10;}
	.st5{fill:none;stroke:#000000;stroke-width:2.9442;stroke-miterlimit:10;}
	.st6{fill:none;stroke:#000000;stroke-width:3.4998;stroke-miterlimit:10;}
	.st7{fill:none;stroke:#000000;stroke-width:2.8098;stroke-miterlimit:10;}
</style>
<path class="st0" d="M381.7,131.9c-0.4,0-0.8,0-1.3,0.1c-0.6-8.6-7.8-15.4-16.5-15.4c-6.1,0-11.5,3.3-14.3,8.3
	c-1.1-0.3-2.3-0.5-3.6-0.5c-5.3,0-9.9,3.3-11.8,7.9c-0.7-0.2-1.5-0.3-2.3-0.3c-4.9,0-8.9,4-8.9,8.9c0,4.9,4,8.9,8.9,8.9h49.8
	c4.9,0,8.9-4,8.9-8.9C390.6,135.9,386.6,131.9,381.7,131.9z"/>
<path class="st1" d="M716.4,40.4c-0.5,0-1.1,0.1-1.6,0.1c-0.7-10.7-9.7-19.2-20.6-19.2c-7.6,0-14.3,4.1-17.9,10.3
	c-1.4-0.4-2.9-0.6-4.5-0.6c-6.6,0-12.3,4.1-14.6,9.8c-0.9-0.3-1.9-0.4-2.9-0.4c-6.1,0-11.1,5-11.1,11.1c0,6.1,5,11.1,11.1,11.1h62.1
	c6.1,0,11.1-5,11.1-11.1C727.5,45.4,722.5,40.4,716.4,40.4z"/>
<path class="st2" d="M1897.9,151.2c-0.6,0-1.2,0.1-1.8,0.1c-0.8-12-10.8-21.5-23.1-21.5c-8.6,0-16,4.6-20,11.5
	c-1.6-0.5-3.3-0.7-5-0.7c-7.4,0-13.8,4.6-16.4,11c-1-0.3-2.1-0.5-3.3-0.5c-6.9,0-12.4,5.6-12.4,12.4c0,6.9,5.6,12.4,12.4,12.4h69.6
	c6.9,0,12.4-5.6,12.4-12.4C1910.3,156.8,1904.8,151.2,1897.9,151.2z"/>
<path class="st3" d="M1823,107c-0.4,0-0.9,0-1.3,0.1c-0.6-9-8.1-16.1-17.3-16.1c-6.4,0-12,3.5-15,8.7c-1.2-0.4-2.5-0.5-3.8-0.5
	c-5.6,0-10.3,3.4-12.3,8.3c-0.8-0.2-1.6-0.3-2.5-0.3c-5.2,0-9.3,4.2-9.3,9.3c0,5.2,4.2,9.3,9.3,9.3h52.2c5.2,0,9.3-4.2,9.3-9.3
	C1832.3,111.1,1828.2,107,1823,107z"/>
<path class="st4" d="M274.8,166.5c-0.6,0-1.2,0.1-1.8,0.1c-0.8-12.3-11.1-21.9-23.5-21.9c-8.7,0-16.3,4.7-20.4,11.8
	c-1.6-0.5-3.3-0.7-5.1-0.7c-7.6,0-14,4.6-16.7,11.2c-1.1-0.3-2.2-0.5-3.3-0.5c-7,0-12.7,5.7-12.7,12.7c0,7,5.7,12.7,12.7,12.7h70.9
	c7,0,12.7-5.7,12.7-12.7C287.5,172.2,281.8,166.5,274.8,166.5z"/>
<path class="st5" d="M811.3,100.2c-0.7,0-1.3,0.1-2,0.2c-0.9-13.5-12.2-24.1-25.9-24.1c-9.6,0-18,5.2-22.5,12.9
	c-1.8-0.5-3.7-0.8-5.6-0.8c-8.3,0-15.4,5.1-18.4,12.3c-1.2-0.3-2.4-0.5-3.7-0.5c-7.7,0-14,6.2-14,14c0,7.7,6.3,14,14,14h78
	c7.7,0,14-6.2,14-14C825.2,106.4,819,100.2,811.3,100.2z"/>
<path class="st6" d="M1149.3,171.7c-0.8,0-1.6,0.1-2.3,0.2c-1.1-16-14.5-28.7-30.8-28.7c-11.4,0-21.4,6.2-26.7,15.4
	c-2.1-0.6-4.4-1-6.7-1c-9.9,0-18.3,6.1-21.9,14.7c-1.4-0.4-2.9-0.6-4.4-0.6c-9.2,0-16.6,7.4-16.6,16.6c0,9.2,7.4,16.6,16.6,16.6
	h92.7c9.2,0,16.6-7.4,16.6-16.6C1165.9,179.1,1158.5,171.7,1149.3,171.7z"/>
<path class="st7" d="M1526.5,82c-0.6,0-1.3,0.1-1.9,0.1c-0.9-12.9-11.6-23-24.7-23c-9.2,0-17.1,5-21.4,12.4
	c-1.7-0.5-3.5-0.8-5.4-0.8c-7.9,0-14.7,4.9-17.6,11.8c-1.1-0.3-2.3-0.5-3.5-0.5c-7.4,0-13.3,6-13.3,13.3c0,7.4,6,13.3,13.3,13.3
	h74.4c7.4,0,13.3-6,13.3-13.3C1539.8,87.9,1533.9,82,1526.5,82z"/>
</svg>
