<?xml version="1.0" encoding="utf-8"?>
<!-- Generator: Adobe Illustrator 27.7.0, SVG Export Plug-In . SVG Version: 6.00 Build 0)  -->
<svg version="1.1" id="Layer_1" xmlns="http://www.w3.org/2000/svg" xmlns:xlink="http://www.w3.org/1999/xlink" x="0px" y="0px"
	 viewBox="0 0 1500 90" style="enable-background:new 0 0 1500 90;" xml:space="preserve">
<style type="text/css">
	.st0{fill:none;stroke:#231F20;stroke-width:4;stroke-miterlimit:10;}
</style>
<g>
	<line class="st0" x1="310.2" y1="37.1" x2="1186" y2="37.1"/>
	<line class="st0" x1="1279" y1="37.1" x2="1500" y2="37.1"/>
	<path class="st0" d="M1183.9,37.1c0-12.4,13-22.4,29-22.4"/>
	<path class="st0" d="M1236.3,37.1c0-12.4-10.8-22.4-24.1-22.4"/>
	<path class="st0" d="M1239.1,37.1c0-9.8,10.5-17.8,23.5-17.8"/>
	<path class="st0" d="M1281,37.1c0-9.8-8.5-17.8-18.9-17.8"/>
	<line class="st0" x1="1435.4" y1="68.9" x2="1500" y2="68.9"/>
	<line class="st0" x1="589.3" y1="73.9" x2="633.5" y2="73.9"/>
	<line class="st0" x1="903.1" y1="53.3" x2="986.1" y2="53.3"/>
	<line class="st0" x1="1057.8" y1="75.3" x2="1145.7" y2="75.3"/>
	<line class="st0" x1="1230.8" y1="57.4" x2="1308.1" y2="57.4"/>
	<line class="st0" x1="723.9" y1="64" x2="799.9" y2="64"/>
	<path class="st0" d="M312.3,37.9c0.5-12-9.1-22.1-20.9-22.2c-11.9-0.2-21.8,9.9-21.4,22"/>
	<path class="st0" d="M270,37.6c0-4.5-3.8-8.1-8.6-8.1"/>
	<path class="st0" d="M250.6,37.6c0-4.5,4.8-8.1,10.8-8.1"/>
	<line class="st0" x1="252.5" y1="37.6" x2="84.5" y2="37.6"/>
	<path class="st0" d="M86.5,37.6c0-6-9.2-10.9-20.5-10.9"/>
	<path class="st0" d="M47.6,37.6c0-6,8.4-10.9,18.7-10.9"/>
	<line class="st0" x1="49.6" y1="37.6" x2="0" y2="37.6"/>
	<line class="st0" x1="24.6" y1="68.9" x2="0" y2="68.9"/>
	<line class="st0" x1="450.7" y1="54.2" x2="526.7" y2="54.2"/>
	<line class="st0" x1="323.8" y1="76.7" x2="407.2" y2="76.7"/>
	<line class="st0" x1="126.1" y1="54.2" x2="239" y2="54.2"/>
</g>
</svg>
